<?xml version="1.0" encoding="UTF-8"?>
<svg width="29px" height="28px" viewBox="0 0 29 28" version="1.1" xmlns="http://www.w3.org/2000/svg" xmlns:xlink="http://www.w3.org/1999/xlink">
    <!-- Generator: Sketch 49.1 (51147) - http://www.bohemiancoding.com/sketch -->
    <title>Group 2</title>
    <desc>Created with Sketch.</desc>
    <defs></defs>
    <g id="Symbols" stroke="none" stroke-width="1" fill="none" fill-rule="evenodd">
        <g id="info">
            <g id="Group-2">
                <path d="M28.0231228,13.854143 C28.0231228,21.5137446 21.758239,27.7082721 14.0115618,27.7082721 C6.26488452,27.7082721 0,21.5137446 0,13.854143 C0,6.19455866 6.26491955,0 14.0115618,0 C21.758239,0 28.0231228,6.19455866 28.0231228,13.854143 Z" id="Path" fill="#DB0011"></path>
                <g id="Group" transform="translate(11.000000, 6.000000)" fill="#F3F3F3">
                    <path d="M4.35544603,0.0451653252 C3.66450089,0.0451653252 3.10441373,0.616473153 3.10441373,1.32120354 C3.10441373,2.02593647 3.66450089,2.59724174 4.35544603,2.59724174 C5.04636615,2.59724174 5.60647833,2.02593647 5.60647833,1.32120354 C5.60647833,0.616473153 5.04636615,0.0451653252 4.35544603,0.0451653252 Z" id="Path"></path>
                    <path d="M3.04186212,3.10765703 C2.22186049,3.14815338 1.349916,3.59061452 0.617987039,4.20823998 L0.53979752,5.14931816 C1.23131813,4.85145257 1.93797624,4.8548749 2.15050161,5.56403058 C2.66780346,7.2891194 0.898743707,10.3068196 0.41469429,11.8883924 C-0.898614397,16.1791985 2.24738155,16.679482 4.49618717,14.9110207 L4.58218313,13.8901901 C3.3586235,14.31164 2.49098256,13.7950742 3.19824116,11.5534324 C3.53897231,10.4721686 6.38782307,5.02268924 4.41799765,3.52236945 C4.00555732,3.2081578 3.5338681,3.08335871 3.04186212,3.10765703 Z" id="Path"></path>
                </g>
            </g>
        </g>
    </g>
</svg>