<?xml version="1.0" encoding="UTF-8"?>
<svg width="80px" height="108px" viewBox="0 0 80 108" version="1.1" xmlns="http://www.w3.org/2000/svg" xmlns:xlink="http://www.w3.org/1999/xlink">
    <!-- Generator: Sketch 49.1 (51147) - http://www.bohemiancoding.com/sketch -->
    <title>Group 6</title>
    <desc>Created with Sketch.</desc>
    <defs>
        <path d="M0.670959025,23.0234979 C0.670959025,23.0234979 22.9068677,0.688726223 22.9994571,0.688726223 C23.0920464,0.688726223 74.0610406,0.688726223 74.0610406,0.688726223 C74.6087058,0.688726223 75.0526762,1.13092537 75.0526762,1.6872339 L75.0526762,103.954791 C75.0526762,104.506251 74.5969681,104.953298 74.0574395,104.953298 L1.66619571,104.953298 C1.11654167,104.953298 0.670959025,104.512494 0.670959025,103.946961 L0.670959025,23.0234979 Z" id="path-1"></path>
    </defs>
    <g id="ETB-Loans-Web" stroke="none" stroke-width="1" fill="none" fill-rule="evenodd">
        <g id="Web---16-–-Decision-Page-AIP3" transform="translate(-262.000000, -454.000000)">
            <g id="Group-6-Copy" transform="translate(200.000000, 367.000000)">
                <g id="Group-6" transform="translate(62.000000, 87.000000)">
                    <g id="Icon/Document">
                        <g id="Doc-icon">
                            <mask id="mask-2" fill="white">
                                <use xlink:href="#path-1"></use>
                            </mask>
                            <g id="Doc">
                                <use fill="#FFFFFF" fill-rule="evenodd" xlink:href="#path-1"></use>
                                <path stroke="#DB0011" stroke-width="3" d="M2.17095903,23.6429324 L2.17095903,103.453298 L73.5526762,103.453298 L73.5526762,1.6872339 C73.5526762,1.95983822 73.7807538,2.18872622 74.0610406,2.18872622 C72.4653622,2.18872622 72.4653622,2.18872622 66.0826484,2.18872622 C58.1042563,2.18872622 58.1042563,2.18872622 48.5301857,2.18872622 C38.9735072,2.18872622 38.9735072,2.18872622 31.0038268,2.18872622 C27.614111,2.18872622 27.614111,2.18872622 25.216269,2.18872622 C23.9154384,2.18872622 23.5532796,2.18872622 23.2968637,2.18872622 C23.1312769,2.64165107 23.1514437,2.60362112 23.9481378,1.85186102 C23.8980061,1.89961622 23.8462171,1.94963788 23.7810676,2.01309101 C23.6200907,2.1698763 23.3826835,2.40362389 23.0726119,2.71058973 C22.4817703,3.29551336 21.6316697,4.14173936 20.5443893,5.22705622 C18.6286093,7.13937639 16.0220494,9.74844166 12.8972575,12.8805784 C12.8798268,12.8980501 12.8798268,12.8980501 12.8623962,12.9155218 C10.4255534,15.3581136 7.81676222,17.9752345 5.20940953,20.5923634 C4.29682972,21.508365 3.44961692,22.3589359 2.68944192,23.1222637 C2.45480607,23.3578882 2.29058737,23.5227989 2.17095903,23.6429324 Z"></path>
                            </g>
                            <polygon id="Rectangle" fill="#DB0011" mask="url(#mask-2)" points="23.3707865 23.4 0 23.4 23.3707865 0"></polygon>
                            <text id="PDF" mask="url(#mask-2)" font-family="HelveticaNeue-Bold, Helvetica Neue" font-size="16" font-weight="bold" letter-spacing="-0.200000003" fill="#DB0011">
                                <tspan x="22.3942472" y="56.5">PD</tspan>
                                <tspan x="44.5222472" y="56.5">F</tspan>
                            </text>
                            <g id="tick" transform="translate(58.426966, 86.400000)">
                                <ellipse id="Oval-5" fill="#DB0011" cx="10.7865169" cy="10.8" rx="10.7865169" ry="10.8"></ellipse>
                                <path d="M8.08988764,14.4 L14.3820225,8.1" id="Line" stroke="#FFFFFF" stroke-width="2" stroke-linecap="round"></path>
                                <path d="M8.08988764,14.4 L14.3820225,8.1" id="Line" stroke="#FFFFFF" stroke-width="2" stroke-linecap="round" transform="translate(11.235955, 11.250000) scale(-1, 1) translate(-11.235955, -11.250000) "></path>
                            </g>
                        </g>
                    </g>
                </g>
            </g>
        </g>
    </g>
</svg>