<?xml version="1.0" encoding="UTF-8"?>
<svg width="20px" height="20px" viewBox="0 0 20 20" version="1.1" xmlns="http://www.w3.org/2000/svg" xmlns:xlink="http://www.w3.org/1999/xlink">
    <!-- Generator: Sketch 49.1 (51147) - http://www.bohemiancoding.com/sketch -->
    <title>Page 1</title>
    <desc>Created with Sketch.</desc>
    <defs></defs>
    <g id="ETB-Loans-Mobile" stroke="none" stroke-width="1" fill="none" fill-rule="evenodd">
        <g id="Mobile---2a-–-Loan-Calculator" transform="translate(-330.000000, -287.000000)" fill="#FFFFFF">
            <g id="Accordion/Active-Copy-2" transform="translate(0.000000, 270.000000)">
                <g id="Page-1" transform="translate(330.000000, 17.000000)">
                    <path d="M18.4067028,4.05490173 L17.6743082,4.78728635 L15.21292,2.32566026 L15.9450433,1.59354689 L15.9450433,1.59327564 C16.6237289,0.914870471 17.7280171,0.914599218 18.4067028,1.59327564 C19.0851171,2.27195205 19.0851171,3.37622531 18.4067028,4.05490173 Z M2.97135184,15.0043231 L4.99547339,17.0284172 L1.8144397,18.1853137 L2.97135184,15.0043231 Z M3.51956273,14.0183164 L14.4455332,3.09276534 L16.9071927,5.55439143 L5.98122222,16.4799425 L3.51956273,14.0183164 Z M19.1738183,0.826170556 C18.0727851,-0.275118915 16.2795035,-0.275661422 15.1779278,0.826170556 L2.28371473,13.7199375 L0,20 L6.27987644,17.7157737 L19.1738183,4.82200681 C20.2753939,3.72044609 20.2753939,1.92773128 19.1738183,0.826170556 Z" id="Fill-1"></path>
                </g>
            </g>
        </g>
    </g>
</svg>