<?xml version="1.0" encoding="UTF-8"?>
<svg width="22px" height="18px" viewBox="0 0 22 18" version="1.1" xmlns="http://www.w3.org/2000/svg" xmlns:xlink="http://www.w3.org/1999/xlink">
    <!-- Generator: Sketch 49.1 (51147) - http://www.bohemiancoding.com/sketch -->
    <title>Page 1</title>
    <desc>Created with Sketch.</desc>
    <defs>
        <polygon id="path-1" points="0 0 22 0 22 18 0 18"></polygon>
    </defs>
    <g id="Symbols" stroke="none" stroke-width="1" fill="none" fill-rule="evenodd" opacity="0.801177536">
        <g id="Accordion/Upload" transform="translate(-628.000000, -19.000000)">
            <g id="Page-1" transform="translate(628.000000, 19.000000)">
                <mask id="mask-2" fill="white">
                    <use xlink:href="#path-1"></use>
                </mask>
                <g id="Clip-2"></g>
                <path d="M21.25,14.0229303 C20.83575,14.0229303 20.5,14.3567556 20.5,14.7686309 L20.5,16.5085989 L1.5,16.5085989 L1.5,14.7686309 C1.5,14.3567556 1.16425,14.0229303 0.75,14.0229303 C0.33575,14.0229303 0,14.3567556 0,14.7686309 L0,17.2542994 C0,17.6659261 0.33575,18 0.75,18 L21.25,18 C21.66425,18 22,17.6659261 22,17.2542994 L22,14.7686309 C22,14.3567556 21.66425,14.0229303 21.25,14.0229303 M8.16775,4.60746633 L10.25,2.53715299 L10.25,13.2772297 C10.25,13.6888564 10.58575,14.0229303 11,14.0229303 C11.41425,14.0229303 11.75,13.6888564 11.75,13.2772297 L11.75,2.53715299 L13.832,4.60746633 C13.9785,4.75312651 14.1705,4.8259566 14.36225,4.8259566 C14.554,4.8259566 14.746,4.75312651 14.8925,4.6077149 C15.1855,4.31639455 15.1855,3.84436608 14.8925,3.55279716 L11.53025,0.209821508 C11.249,-0.0698162055 10.751,-0.0700647723 10.46975,0.209821508 L7.10725,3.55279716 C6.81425,3.84411752 6.81425,4.31639455 7.10725,4.60746633 C7.4,4.89853812 7.875,4.89853812 8.16775,4.60746633" id="Fill-1" fill="#000000" mask="url(#mask-2)"></path>
            </g>
        </g>
    </g>
</svg>